<svg xmlns="http://www.w3.org/2000/svg" viewBox="0 0 300 300">
  <!-- Penny/coin background -->
  <circle cx="150" cy="150" r="120" fill="#F9AA4B" />
  <circle cx="150" cy="150" r="110" fill="#E57C23" />
  
  <!-- Coin edge ridges -->
  <circle cx="150" cy="150" r="120" fill="none" stroke="#D46710" stroke-width="2" stroke-dasharray="3,6" />
  
  <!-- Embossed effect - subtle outer shadow -->
  <circle cx="150" cy="150" r="85" fill="#D46710" opacity="0.3" />
  <circle cx="150" cy="150" r="85" fill="none" stroke="#D46710" stroke-width="1" />
  
  <!-- Bird silhouette as coin impression/relief -->
  <path d="M120 150 Q130 120 160 110 Q180 110 190 120 Q200 130 200 150 Q200 170 180 180 L220 200 Q200 180 180 180 Q160 190 140 180 Q120 170 120 150 Z" fill="#CC6600" stroke="#BB5500" stroke-width="0.5" />
  
  <!-- Eye - embossed effect -->
  <circle cx="175" cy="130" r="5" fill="#CC6600" stroke="#BB5500" stroke-width="0.5" />
  
  <!-- Beak - embossed effect -->
  <path d="M190 120 L210 130 L195 140 Z" fill="#CC6600" stroke="#BB5500" stroke-width="0.5" />
  
  <!-- Tail feathers - embossed effect -->
  <path d="M120 150 L90 120 L100 150 L85 170 L120 150" fill="#CC6600" stroke="#BB5500" stroke-width="0.5" />
  
  <!-- Legs - embossed effect -->
  <path d="M160 180 L160 210 M170 180 L170 210" stroke="#CC6600" stroke-width="4" stroke-linecap="round" />
  
  <!-- Coin impression highlights -->
  <path d="M120 150 Q130 120 160 110 Q180 110 190 120 Q200 130 200 150 Q200 170 180 180 L220 200 Q200 180 180 180 Q160 190 140 180 Q120 170 120 150 Z" fill="none" stroke="#E8872D" stroke-width="0.8" opacity="0.7" />
  
  <!-- Subtle shine effect -->
  <ellipse cx="120" cy="120" rx="70" ry="50" fill="white" opacity="0.1" />
  
  <!-- Penny ridges (subtle texture) -->
  <circle cx="150" cy="150" r="100" fill="none" stroke="#D46710" stroke-width="1" stroke-dasharray="3,5" opacity="0.5" />
  <circle cx="150" cy="150" r="90" fill="none" stroke="#D46710" stroke-width="1" stroke-dasharray="3,5" opacity="0.5" />
</svg>
